<svg xmlns="http://www.w3.org/2000/svg" xmlns:xlink="http://www.w3.org/1999/xlink" width="442.975" height="185.167" viewBox="0 0 442.975 185.167">
  <defs>
    <clipPath id="clip-path">
      <rect id="Rectangle_31" data-name="Rectangle 31" width="442.975" height="185.167" fill="none"/>
    </clipPath>
  </defs>
  <g id="Group_3538" data-name="Group 3538" transform="translate(0 0)">
    <path id="Path_56" data-name="Path 56" d="M31.607,68.121V87.36h-25V68.121H.232v44.5H6.605V93.254h25v19.367H37.98v-44.5Z" transform="translate(0.245 71.975)" fill="#045397"/>
    <rect id="Rectangle_29" data-name="Rectangle 29" width="6.373" height="44.5" transform="translate(49.059 140.095)" fill="#045397"/>
    <g id="Group_21" data-name="Group 21" transform="translate(0 0)">
      <g id="Group_20" data-name="Group 20" clip-path="url(#clip-path)">
        <path id="Path_57" data-name="Path 57" d="M55.053,73.512a17.34,17.34,0,0,0-8.728,2.246,16.859,16.859,0,0,0-8.57,14.922A17.359,17.359,0,0,0,40,99.472a16.174,16.174,0,0,0,6.26,6.164,18.2,18.2,0,0,0,9.045,2.246,22.312,22.312,0,0,0,4.38-.383q1.894-.383,5.654-1.559V96.669H56.805V91.063H71.744v18.795a38.97,38.97,0,0,1-16.309,3.628,25.853,25.853,0,0,1-13.505-3.28,21.111,21.111,0,0,1-8.156-8.44,23.32,23.32,0,0,1,.333-22.3,22.338,22.338,0,0,1,8.522-8.473,24.818,24.818,0,0,1,12.549-3.153,31.8,31.8,0,0,1,7.311.812,48.73,48.73,0,0,1,8.331,2.978v6.5a35.38,35.38,0,0,0-7.868-3.41,27.96,27.96,0,0,0-7.9-1.209" transform="translate(32.859 71.68)" fill="#045397"/>
        <path id="Path_58" data-name="Path 58" d="M87.21,87.36V68.121h6.371v44.5H87.21V93.252h-25v19.367H55.835v-44.5h6.371V87.36Z" transform="translate(58.994 71.975)" fill="#045397"/>
        <path id="Path_59" data-name="Path 59" d="M110.889,70.962v7.231a14.688,14.688,0,0,0-10.419-4.619,7.437,7.437,0,0,0-4.759,1.4,4.546,4.546,0,0,0-1.769,3.759A7.035,7.035,0,0,0,94.4,81.38a7.935,7.935,0,0,0,2.055,2.61,26.871,26.871,0,0,0,4.777,3.28,48.509,48.509,0,0,1,7.153,4.858,12.041,12.041,0,0,1,3.36,4.35,14.17,14.17,0,0,1,.923,5.415,10.954,10.954,0,0,1-1.641,5.894,11.528,11.528,0,0,1-4.572,4.171,14.323,14.323,0,0,1-6.719,1.528,19.833,19.833,0,0,1-12.01-4.109v-8.088a16.929,16.929,0,0,0,5.464,4.841,13.513,13.513,0,0,0,6.546,1.686,6.761,6.761,0,0,0,4.664-1.656,5.375,5.375,0,0,0,1.863-4.2,6.874,6.874,0,0,0-.621-2.994,9.8,9.8,0,0,0-2.7-3.011,52.89,52.89,0,0,0-6.324-4.187,21.687,21.687,0,0,1-7.023-5.8,11.927,11.927,0,0,1-2.055-7.04,9.991,9.991,0,0,1,1.7-5.67,11.518,11.518,0,0,1,4.666-3.979,15.311,15.311,0,0,1,6.754-1.433,18.259,18.259,0,0,1,10.225,3.12" transform="translate(92.493 71.68)" fill="#045397"/>
        <path id="Path_60" data-name="Path 60" d="M142.191,71.5v6.688a31.3,31.3,0,0,0-15.385-4.426,17.736,17.736,0,0,0-9.236,2.388,17.074,17.074,0,0,0-6.258,22.935,15.871,15.871,0,0,0,6.1,6.164,18.268,18.268,0,0,0,9.333,2.31,28.4,28.4,0,0,0,15.928-4.969V109.6a33.986,33.986,0,0,1-16.181,3.887,24.36,24.36,0,0,1-13.189-3.393,21.9,21.9,0,0,1-8.091-8.6,23.266,23.266,0,0,1-2.674-10.752,21.8,21.8,0,0,1,3.231-11.657,22.876,22.876,0,0,1,8.775-8.251,25.015,25.015,0,0,1,12.072-2.994A37.729,37.729,0,0,1,142.191,71.5" transform="translate(108.336 71.68)" fill="#045397"/>
        <path id="Path_61" data-name="Path 61" d="M157.651,87.36V68.121h6.371v44.5h-6.371V93.252h-25v19.367h-6.371v-44.5h6.371V87.36Z" transform="translate(133.419 71.975)" fill="#045397"/>
        <path id="Path_62" data-name="Path 62" d="M196.535,90.616a23.024,23.024,0,0,1-2.9,11.307,21.58,21.58,0,0,1-8.44,8.411,25.841,25.841,0,0,1-13,3.153,23.86,23.86,0,0,1-12.185-3.091,22.366,22.366,0,0,1-11.291-19.589,23.584,23.584,0,0,1,2.8-11.229,21.712,21.712,0,0,1,8.187-8.5,24.474,24.474,0,0,1,12.837-3.233,25.214,25.214,0,0,1,12.391,3.025,22.02,22.02,0,0,1,8.537,8.249,22.363,22.363,0,0,1,3.058,11.5m-41.218.191a16.305,16.305,0,0,0,8.537,14.54,17.389,17.389,0,0,0,8.5,2.151,20.052,20.052,0,0,0,8.856-1.927,15.13,15.13,0,0,0,6.355-5.734,17.216,17.216,0,0,0,2.373-9.283,16.981,16.981,0,0,0-1.976-7.836,16.412,16.412,0,0,0-5.892-6.373,16.909,16.909,0,0,0-9.333-2.515,18.387,18.387,0,0,0-9.3,2.262,15.416,15.416,0,0,0-6.034,6.1,17.723,17.723,0,0,0-2.087,8.615" transform="translate(157.137 71.68)" fill="#045397"/>
        <path id="Path_63" data-name="Path 63" d="M222.765,90.616a23.025,23.025,0,0,1-2.9,11.307,21.58,21.58,0,0,1-8.44,8.411,25.841,25.841,0,0,1-13,3.153,23.86,23.86,0,0,1-12.185-3.091,22.366,22.366,0,0,1-11.291-19.589,23.584,23.584,0,0,1,2.8-11.229,21.712,21.712,0,0,1,8.187-8.5,24.474,24.474,0,0,1,12.837-3.233,25.214,25.214,0,0,1,12.391,3.025,22.019,22.019,0,0,1,8.537,8.249,22.363,22.363,0,0,1,3.058,11.5m-41.218.191a16.305,16.305,0,0,0,8.537,14.54,17.389,17.389,0,0,0,8.5,2.151,20.052,20.052,0,0,0,8.856-1.927,15.13,15.13,0,0,0,6.355-5.734,17.217,17.217,0,0,0,2.373-9.283,16.983,16.983,0,0,0-1.976-7.836,16.412,16.412,0,0,0-5.892-6.373,16.909,16.909,0,0,0-9.333-2.515,18.388,18.388,0,0,0-9.3,2.262,15.416,15.416,0,0,0-6.034,6.1,17.723,17.723,0,0,0-2.087,8.615" transform="translate(184.851 71.68)" fill="#045397"/>
        <path id="Path_64" data-name="Path 64" d="M228.831,106.823v5.8h-26.47V68.12H208.8v38.7Z" transform="translate(213.808 71.974)" fill="#045397"/>
        <path id="Path_65" data-name="Path 65" d="M111.583,8.166V28.491L129.6,20.325V0Z" transform="translate(117.895 0)" fill="#e9580e"/>
        <rect id="Rectangle_30" data-name="Rectangle 30" width="442.163" height="6.17" transform="translate(0.477 122.078)" fill="#e9580e"/>
        <path id="Path_66" data-name="Path 66" d="M63.579,23.366Q53.457,12.911,37.22,12.91A36.975,36.975,0,0,0,17.8,17.99,34.128,34.128,0,0,0,4.67,32.521,49.273,49.273,0,0,0,0,54.208C0,66.763,3.4,77.256,10.2,84.791S26.049,96.1,37.37,96.1a37.255,37.255,0,0,0,19.609-5.115A33.712,33.712,0,0,0,70.03,76.524c3.038-6.227,4.707-15.41,4.52-23.315-.271-11.529-4.226-22.873-10.972-29.843M51.566,74.6a16.443,16.443,0,0,1-14.2,7.118q-9.122,0-14.236-7T18.018,55.321q0-13.94,5.189-20.946A16.542,16.542,0,0,1,37.22,27.368a16.694,16.694,0,0,1,14.2,7.118q5.226,7.12,5.228,19.278,0,13.715-5.08,20.833" transform="translate(0 13.641)" fill="#e9580e"/>
        <path id="Path_67" data-name="Path 67" d="M217.843,52.949q0-19.129-8.934-29.584T183.586,12.91A34.385,34.385,0,0,0,164.9,18.177,35.255,35.255,0,0,0,151.89,32.894a48.134,48.134,0,0,0-4.633,21.462v2.225q0,17.945,10.641,28.73T185.663,96.1a40.244,40.244,0,0,0,18.055-3.967,32.414,32.414,0,0,0,12.864-11.157l-9.713-9.267Q199.083,81.715,186.7,81.715a19.919,19.919,0,0,1-14.643-5.781q-5.824-5.784-6.637-15.718h52.42Zm-52.124-5.933q1.262-9.267,5.82-14.458a15.179,15.179,0,0,1,11.975-5.191q7.487,0,11.714,4.636c2.817,3.089,4.288,7.346,4.819,15.013Z" transform="translate(155.587 13.641)" fill="#045397"/>
        <path id="Path_68" data-name="Path 68" d="M231.764,72.818A8.164,8.164,0,0,0,227.8,65.48q-3.967-2.523-13.158-4.448a67.549,67.549,0,0,1-15.348-4.895q-13.5-6.524-13.5-18.908,0-10.377,8.749-17.347t22.244-6.972q14.385,0,23.245,7.118a22.594,22.594,0,0,1,8.858,18.464H230.873a11.11,11.11,0,0,0-3.854-8.64q-3.856-3.446-10.231-3.447a15.971,15.971,0,0,0-9.676,2.743,8.647,8.647,0,0,0-3.745,7.34,7.3,7.3,0,0,0,3.486,6.451q3.486,2.3,14.085,4.633t16.646,5.561a23.569,23.569,0,0,1,8.971,7.747,19.743,19.743,0,0,1,2.931,10.972q0,10.828-8.971,17.536T217.01,96.1a41.461,41.461,0,0,1-17.571-3.558,28.891,28.891,0,0,1-12.012-9.787,23.154,23.154,0,0,1-4.3-13.419h17.5a12.7,12.7,0,0,0,4.821,9.824q4.448,3.446,11.79,3.447,7.114,0,10.822-2.706a8.373,8.373,0,0,0,3.708-7.081" transform="translate(193.488 13.641)" fill="#045397"/>
        <path id="Path_69" data-name="Path 69" d="M111.583,22.017V93.623H129.6V13.851Z" transform="translate(117.895 14.635)" fill="#045397"/>
        <path id="Path_70" data-name="Path 70" d="M85.469,31.335q3.3,3.671,3.3,11.307v51.97l18.018-8.167V41.6Q106.341,12.911,81.28,12.91q-14.459,0-23.356,10.752L57.4,14.395H40.428V94.618H58.444V37.527q5.34-9.862,16.239-9.861,7.487,0,10.787,3.669" transform="translate(42.715 13.641)" fill="#e9580e"/>
        <path id="Path_71" data-name="Path 71" d="M157.251,88.255q-1.817-2.039-1.818-6.637V36.837H166.4l9.115-13.345H155.433V4.3l-18.016,8.165V23.492h-13.2V36.837h13.2v45.45q0,22.908,20.759,22.908a44.363,44.363,0,0,0,11.864-1.7V89.553a27.789,27.789,0,0,1-6.3.74q-4.667,0-6.486-2.038" transform="translate(131.245 4.544)" fill="#045397"/>
        <path id="Path_72" data-name="Path 72" d="M129.527,53.134q-6.043-3.227-16.646-5.561T98.8,42.94a7.3,7.3,0,0,1-3.486-6.451,8.65,8.65,0,0,1,3.745-7.34,15.967,15.967,0,0,1,9.676-2.743q6.373,0,10.231,3.449a11.161,11.161,0,0,1,3.315,5L138.284,27.6a23.734,23.734,0,0,0-6.31-7.572q-8.863-7.114-23.243-7.118-13.5,0-22.244,6.972T77.738,37.231q0,12.383,13.5,18.906a67.548,67.548,0,0,0,15.348,4.895q9.19,1.928,13.158,4.448a8.166,8.166,0,0,1,3.967,7.338A8.376,8.376,0,0,1,120,79.9q-3.7,2.708-10.824,2.7-7.339,0-11.788-3.447a11.992,11.992,0,0,1-4.358-6.746L77.442,79.477a25.917,25.917,0,0,0,1.927,3.276A28.891,28.891,0,0,0,91.381,92.54a41.462,41.462,0,0,0,17.571,3.56q14.53,0,23.5-6.711t8.971-17.534A19.738,19.738,0,0,0,138.5,60.884a23.572,23.572,0,0,0-8.971-7.749" transform="translate(81.823 13.641)" fill="#045397"/>
      </g>
    </g>
  </g>
</svg>
