<svg xmlns="http://www.w3.org/2000/svg" xmlns:xlink="http://www.w3.org/1999/xlink" width="64.911" height="64.911" viewBox="0 0 64.911 64.911">
  <defs>
    <linearGradient id="linear-gradient" x1="0.053" y1="0.061" x2="0.905" y2="1.034" gradientUnits="objectBoundingBox">
      <stop offset="0" stop-color="#025297"/>
      <stop offset="1" stop-color="#ff5000"/>
    </linearGradient>
  </defs>
  <g id="Group_2226" data-name="Group 2226" transform="translate(-1377.044 -965.045)">
    <circle id="Ellipse_57" data-name="Ellipse 57" cx="26.5" cy="26.5" r="26.5" transform="matrix(-0.966, -0.259, 0.259, -0.966, 1428.238, 1029.956)" fill="url(#linear-gradient)"/>
    <path id="phone-volume-solid" d="M15.39-.021A12.754,12.754,0,0,1,28.142,12.731a1.319,1.319,0,1,1-2.638,0A10.115,10.115,0,0,0,15.39,2.617a1.319,1.319,0,1,1,0-2.638Zm.44,10.553a1.759,1.759,0,1,1-1.759,1.759A1.759,1.759,0,0,1,15.83,10.532ZM14.071,6.574A1.316,1.316,0,0,1,15.39,5.255a7.476,7.476,0,0,1,7.475,7.475,1.319,1.319,0,1,1-2.638,0A4.837,4.837,0,0,0,15.39,7.894,1.316,1.316,0,0,1,14.071,6.574ZM6.458.056A2.192,2.192,0,0,1,9.064,1.331l2.2,5.277a2.192,2.192,0,0,1-.638,2.545l-2.71,2.221a18.577,18.577,0,0,0,8.833,8.833l2.215-2.71a2.194,2.194,0,0,1,2.545-.638l5.277,2.2a2.192,2.192,0,0,1,1.275,2.605L26.74,26.5a2.194,2.194,0,0,1-2.116,1.621A24.626,24.626,0,0,1,0,3.5,2.205,2.205,0,0,1,1.621,1.375L6.458.056Z" transform="translate(1394.429 983.45)" fill="#fff"/>
  </g>
</svg>
