<svg xmlns="http://www.w3.org/2000/svg" width="466.172" height="285.922" viewBox="0 0 466.172 285.922">
  <g id="Group_2555" data-name="Group 2555" transform="translate(-479.5 -1633.648)">
    <path id="earth-americas-solid" d="M28.978,96.929l4.721,8.236a32.163,32.163,0,0,0,19.085,14.966l29.079,8.287a20.07,20.07,0,0,1,14.565,19.336v20.039a14.528,14.528,0,0,0,8.036,13.008,14.528,14.528,0,0,1,8.036,13.008V213.4a11.784,11.784,0,0,0,15.017,11.35,23.671,23.671,0,0,0,16.423-16.975l1.406-5.625a32.06,32.06,0,0,1,15.217-20.089l4.068-2.31A24.074,24.074,0,0,0,176.783,158.8v-4.168A24.107,24.107,0,0,0,169.7,137.61l-1.959-1.959a24.108,24.108,0,0,0-17.025-7.081H129.072a32.446,32.446,0,0,1-15.971-4.219l-17.327-9.894a10.426,10.426,0,0,1-4.62-5.625,10.109,10.109,0,0,1,5.123-12.3l2.963-1.507a13.9,13.9,0,0,1,10.7-.753l11.652,3.867a9.581,9.581,0,0,0,10.4-15.217l-6.83-8.186a16.038,16.038,0,0,1,.151-20.742L133.19,44.8a16.086,16.086,0,0,0,1.758-18.432l-1.205-2.109c-1.758-.1-3.465-.151-5.223-.151A104.5,104.5,0,0,0,28.978,96.929Zm204.054,31.64a104.272,104.272,0,0,0-13.259-50.976l-12.857,5.173a16.119,16.119,0,0,0-9.291,19.989l8.488,25.463a16.033,16.033,0,0,0,11.35,10.5l14.615,3.666a104.578,104.578,0,0,0,.9-13.811ZM0,128.57a128.57,128.57,0,1,1,128.57,128.57A128.57,128.57,0,0,1,0,128.57Z" transform="translate(580.537 1662.431)" fill="#ea580d"/>
    <rect id="Rectangle_1848" data-name="Rectangle 1848" width="466.172" height="80.015" transform="translate(479.5 1777.506)" fill="#fff"/>
    <text id="Text_TAG:P_" data-name="Text [TAG:P]" transform="translate(709.894 1841.985)" font-size="68" font-family="Cantiga"><tspan x="-212" y="0">ISO 21001:2018</tspan></text>
    <path id="graduation-cap-solid" d="M82.275,32a18.192,18.192,0,0,0-6.094,1.054L4.051,59.1a6.188,6.188,0,0,0,0,11.623L18.94,76.1a42.334,42.334,0,0,0-6.609,22.732v7.226c0,7.3-2.777,14.837-5.734,20.777A68.174,68.174,0,0,1,.811,136.5a4.126,4.126,0,0,0,2.289,6.48L19.557,147.1a4.1,4.1,0,0,0,3.189-.514,4.028,4.028,0,0,0,1.826-2.674,66.3,66.3,0,0,0-.54-27.952,56.863,56.863,0,0,0-3.471-10.8V98.832a34.147,34.147,0,0,1,7.174-20.957,31.4,31.4,0,0,1,12.652-9.18L80.758,52.829a4.1,4.1,0,0,1,3.009,7.637L43.395,76.332a23.606,23.606,0,0,0-8.28,5.554L76.155,96.7a18.141,18.141,0,0,0,12.189,0L160.5,70.726a6.188,6.188,0,0,0,0-11.623L88.37,33.054A18.192,18.192,0,0,0,82.275,32ZM32.9,128.687c0,9.077,22.115,18.515,49.372,18.515s49.372-9.437,49.372-18.515L127.713,91.3,91.147,104.515a26.277,26.277,0,0,1-17.743,0L36.838,91.3Z" transform="translate(626.832 1601.648)" fill="#025297"/>
  </g>
</svg>
