<svg id="Group_3292" data-name="Group 3292" xmlns="http://www.w3.org/2000/svg" xmlns:xlink="http://www.w3.org/1999/xlink" width="158.762" height="127.896" viewBox="0 0 158.762 127.896">
  <defs>
    <clipPath id="clip-path">
      <rect id="Rectangle_2286" data-name="Rectangle 2286" width="158.762" height="127.896" transform="translate(0 0)" fill="#fff"/>
    </clipPath>
  </defs>
  <g id="Group_3291" data-name="Group 3291" clip-path="url(#clip-path)">
    <path id="Path_574" data-name="Path 574" d="M124.179,13.883c-1.3,23.062,4.5,48.633-8.2,69.307-6.066,9.875-23.619,24.318-34.4,28.594-5.22,2.07-8.117-.534-12.7-3.09-15.556-8.675-32.522-25.268-35.435-43.565-1.332-8.362-.061-15.945-.212-23.693-.179-9.237-1-18.336-1.052-27.553C48.224,14.166,65.281,10.492,77.822,0a72.551,72.551,0,0,0,46.357,13.883m-82,39.987,7.006,3.579c.935-.455,11.942-15.34,12.506-16.6,1.48-3.31-4.249-8.043-6.385-6.817Zm62,2.018c1.712.086,2.94,1.851,4.061,1.586,1.625-.385,3.994-3.363,5.971-4.112-.026-1.147-12.143-17.632-13.5-18.572-3.482-2.42-5.1,2.8-8.052,3.1-3.308.345-9.3-3.2-12.93-2.965-4.072.263-15.4,10.058-17.645,13.451-1.252,1.89.684,3.9,2.13,4.992,5.812,4.369,12.111-5.621,16.982-4.089,1.95.613,16.5,12.952,18,15.088.951,1.358,1.78,1.519.016,3.045-4.311,2.824-9.692-4.831-11.028-3.524L93.1,71.251l-2.418,2.476-6.5-3.839,3.988,6.993c-9.038,4.237-8.971-7.595-13.254-11.734-2.383-2.3-7.046-3.845-9.254-5.216-1.417-.88-2.509-3.47-4.2-3.908-2.561-.664-10.354,5.052-10.277,8.275.109,4.538,3.336,3.41,4.97,5.087,5.52,5.665,4.824,5.489,11.746,9.772,1.131.7,1.841,4.811,5.6,4.5,4.029-.337,4.416-3.585,4.688-3.759.492-.316,1.682,1.506,2.718,1.807,4.981,1.446,8.072-3.647,11-5.835,1.186-.885,4.744-1.579,5.1-2.169.556-.924-.265-2.927.315-3.642.335-.412,5.141-.891,5.687-3.819-5.222-7.184.937-5.811,1.159-10.35-2.911-.146-4.585,3.1-6.319,2.837-3.293-.5-12.831-11.95-17.4-12.683C75.605,45.264,67.766,56.308,65.18,49.4c3.727-3.422,10.093-11.6,15.375-11.464,1.257.033,14.515,3.4,15.184,3.882,1.443,1.04,8.524,12.25,8.435,14.065" fill="#fff"/>
    <path id="Path_575" data-name="Path 575" d="M148.106,58.252c2.684-2.454,5.241-5.438,9.2-5.571.763,5.611-2.416,13.895-9.208,11.644l-.665,8.229c2.882-2.116,6.1-4.511,9.844-4.7,3.392-.172.052,5.788-.931,7.177-5.17,7.311-10.2,2.064-11.051,2.947l-2.482,9.531a12.619,12.619,0,0,1,11.4-3.144c.869.221,1.868-.065,1.481,1.5-1.166,4.719-11.645,11.742-14.862,5.018l-5.351,7.475c1.9-.073,13.908-.982,13.632,2.795-.284,3.871-15.573,9.708-18.294,2.6l-6.772,5.124,8.415,2.19,4.88,4.712c-5.6,2.358-17.5,5.983-17.745-3.128-1.53.057-11.608,4.772-10.2,5.722,3.327-2.179,14.468,6.65,12.643,9.063-8.1,1.434-14.054-.344-19.023-6.876-2.111-.243-8.438,3.991-10.9,5.035-4.521,1.917-5.389-.952-1.162-3.456,3.338-1.976,22.784-9.54,23.38-10.678-3.691-6.155-2.589-16.972,4.948-19.044,2.29,5.666,2.784,10.818-.342,16.269l8.788-7c-5.343-4.517-5.333-12.271-1.181-17.549,1.411-.841,3.862,4.315,4.142,5.122.924,2.66.684,5.6,2.069,8.026l4.443-6.444c-4.131-4.058-5.584-5.873-5.865-11.972-.314-6.787,1.838-7.1,5.5-1.85a31.471,31.471,0,0,1,3.347,6.876l2.886-6.243c-.158-1.963-4.089-2.025-5.827-4.843s-1.973-6.125-2.467-9.3c4.648-1.108,7.788,3.99,9.368,7.56l1.7-7.9c-6.061-.174-8.6-5.783-9.908-11.006a6.373,6.373,0,0,1,4.483.407c2.737,1.028,3.19,3.18,5.36,4.034-3.169-6.2-4.263-10.814-.3-17.156a14.521,14.521,0,0,1,5.061,8.755c.565,4.532-3.279,5.908-2.445,10.05" fill="#fff"/>
    <path id="Path_576" data-name="Path 576" d="M14.635,49.147l6.431-2.35,1.847,2c-.01,1.3-3.25,6.6-4.45,7.53-3.646,2.813-6.087-1.979-5.624,7.842l7.656-5.8,2.344,1.109c.219,6.058-2.741,10.708-8.711,11.72l2.953,8.515c-1.083-3,6.955-12.408,8.794-10.127,1.263,6.426.06,13.4-6.994,15.231l4.678,7.913c4.543-22.672,15.672-5.661,4.677,4.837l8.091,7.733a13.862,13.862,0,0,1,.106-14.455c2.291-3.843,5.151,2.256,5.963,4.716,1.651,5,1.052,8.876-2.693,12.667,7.011,4.379,15.849,7.632,22.347,12.678,4.134,3.211,2.78,5.565-1.447,3.334-3.688-1.947-6.692-5.4-11.017-6.232-1.7,7.952-11.694,7.663-17.985,5.7.691-3.89,4.936-6.162,8.212-7.653,2.05-.933,4.667.434,4.705-2.438L35.326,109.2c.743,9.759-19.408,3.336-18.533-.128,2.773-1.778,5.8-3.66,9.2-3.862,2.089-.123,5.309,1.71,6.2.089L24.081,99c-5.771,6.029-12.148,2.259-16.835-3.194-1.571-4.574,11.479-2.839,13.506-2.232l-4.676-7.9C12.254,91.363.584,82.607.731,79.116.886,75.4,10.845,78,12.388,80.462c3.316,1.623-.629-7.055-1.073-8.339C4.834,75.371-1.3,67.055.241,60.94a13.274,13.274,0,0,1,10.144,6.727c.872-.644.063-8.549-.234-8.9-.454-.538-2.368,0-3.3-.491C3.638,56.58,1.263,50.866,1.654,47.353c.586-5.257,8.609,5.285,9.06,4.916,2.014-3.3-.974-5.381-1.329-7.824-.709-4.869,1.659-7.378,4.143-11.067C17.9,37.8,17.8,43.995,14.635,49.147" fill="#fff"/>
    <path id="Path_577" data-name="Path 577" d="M73.166,66.889c2.836,3.111-3.676,9.717-6.475,9-5.063-1.3,3.652-9.98,6.475-9" fill="#fff"/>
    <path id="Path_578" data-name="Path 578" d="M65.846,63.038l3.311,2.35-7.993,6.051L59.416,69.4a10.937,10.937,0,0,1,6.43-6.362" fill="#fff"/>
    <path id="Path_579" data-name="Path 579" d="M54.179,65.883c-1.636-3.272,7.161-9.476,7.991-5.479.411,1.98-5.47,6.823-7.991,5.479" fill="#fff"/>
    <path id="Path_580" data-name="Path 580" d="M78.169,73.893c-.34,3.8-2.989,6.764-6.99,5.989-.306-4.03,3.285-6.591,6.99-5.989" fill="#fff"/>
  </g>
</svg>
