<svg id="Group_3285" data-name="Group 3285" xmlns="http://www.w3.org/2000/svg" xmlns:xlink="http://www.w3.org/1999/xlink" width="178.6" height="136.275" viewBox="0 0 178.6 136.275">
  <defs>
    <clipPath id="clip-path">
      <rect id="Rectangle_2279" data-name="Rectangle 2279" width="178.6" height="136.275" fill="#fff"/>
    </clipPath>
  </defs>
  <g id="Group_3284" data-name="Group 3284" clip-path="url(#clip-path)">
    <path id="Path_551" data-name="Path 551" d="M115.113,151.952c-.353-3.723-.43-10.908-2.207-14.049-1.28-2.261-9.166-5.656-9.568-10.163-9.433,5.733-23.957,1.871-26.365-9.59-7.046.275-15.18.149-19.172-6.768-1.262-2.187-1.041-5.067-1.86-6.441-.376-.631-1.8-1.1-2.573-2.269-3.668-5.533-4.775-11.283-.811-17.081.84-1.228,3.011-2.588,3.439-3.537.439-.973-.138-4.539.674-6.883a13.144,13.144,0,0,1,5.38-6.372c1.355-.806,4.58-1.491,5.176-2.088,1.113-1.116,1.314-5.212,4.062-7.353a20.334,20.334,0,0,1,6.989-2.7c1.55-.086,2.926.861,4.516.422,1.091-.3,3.387-3.384,5.307-4.425,6.442-3.493,11.334-1.4,16.883,2.382a14.219,14.219,0,0,1,16.587-2.576c1.87.955,4.343,4.4,5.09,4.62,1.555.465,3.054-.338,4.467-.19,3.464.36,7.326,2.077,9.211,5.164.941,1.543.982,4,2.039,4.878.97.8,3.993,1.137,5.893,2.408a13.672,13.672,0,0,1,4.358,5.326c.856,2.647.069,4.879.672,6.938.36,1.232,2.212,2.118,2.931,3.295,3.094,5.066,3.9,10.6.831,15.965-.95,1.661-3.917,3.931-4.21,4.711-.546,1.449.1,5.061-1.386,8.37-1.852,4.131-5.346,5.1-6.653,7.183-1.018,1.622-1.262,5.2-2.6,7.78-1.279,2.476-5.643,6.226-5.97,7.1-1.085,2.9,4.153,12.5,4.462,15.946Zm-17.294-50.5c3.747,2.07,6.933,5.362,11.112,1.774,1.883-1.617,2.522-5.863,4.586-6.482L140.94,96.5c3.7-2.7,1.265-3.334,1.081-5.757-.574-7.551,10.769-4.928,7.549,1.2-1.155,2.2-3.022,1.91-4.336,3.32-.878.941-1.128,3.14-2.447,3.778-3.9,1.887-21.5-.783-27.314.356-2.025.4-4.55,4.327-2.089,4.149,4.234-.305,11.053-2.014,14.841.365,1.283.807,2.8,3.381,3.982,3.686,1.814.47,3.123-2.267,6.255-.789,3.9,1.84,2.322,8.024-2.2,7.779-3.172-.172-2.624-2.519-3.9-3.744-1.789-1.713-4.47-2.691-5.946-5.122-4.753.21-10.51-.682-15.126-.129-2.446.293-4.483,2.139-6.84,2.052-2.447-.09-4.7-2.487-6.13-2.544-.867-.035-7,.461-7.627.647-1.193.356-1.693,1.888-2.567,2.281-1.141.513-3.008.138-3.368.428-.333.269-.163,2.456-.926,3.23-.813.823-3.366.408-3.9,1.972-2.279,12.544,15.245,18.13,23.288,10.293l-1.248-2.424c5.019.916,10.487,5.738,14.55-.342,0-2.1-3.361-1.677-4.877-2.779-.918-.667-1.2-2.272-1.858-2.434a72.439,72.439,0,0,0-10.442.163c-.308.182-.623,1.628-1.511,2.27-1.436,1.038-3.1.676-3.977,1.228-.82.514-1.541,3.913-3.975,3.27-3.253-2.78,1.426-3.441,2.056-4.8.547-1.178-2.174-6.277,2.117-6.967,3.317-.533,4.2,1.774,6.848,2.111a46.392,46.392,0,0,0,8.323-.043c2.171-.424,4.476-4.254,8.017-.914.959,3.606-.7,8,4.606,9.105,4.862,1.012,6.287-4,6.85-4.089,5.825,2.654,10.738,3.926,16.393-.057,6.5-4.577,3.344-8.106,4.6-13.231.06-.243,3.032-2.274,3.832-3.244a11.609,11.609,0,0,0,.629-13.8c-.9-1.332-3.238-2.715-3.615-3.994-.535-1.81.115-4.112-.18-6.046-.643-4.225-6.781-7.825-10.982-7.351-.458-8.694-6.641-11.254-14.517-8.984-1.363-8.313-17.348-9.474-18.7-.957-.808,5.1-.738,24.408-.1,29.729.156,1.3,1.493,1.31,2.29,2.565,5.1,8.023-9.092,10.839-8.525,2.247.194-2.927,3.056-3.167,3.509-5.544-1.132-8.493,1.644-21.684-.132-29.581-1.787-7.949-16.814-6.251-18.978,1.633-7.447-2.514-14.357.418-14.13,8.89-3.74.289-6.469.921-8.957,3.839-3.563,4.181-1.083,5.776-2.2,9.559-.448,1.515-3.65,3.348-4.609,5.076a12.142,12.142,0,0,0,.713,12.246c1.1,1.653,3.324,2.584,3.686,3.231.64,1.146.3,3.182.813,4.72a11.688,11.688,0,0,0,8.229,6.989c1.394.218,7.779.3,8.628-.273,3.044-2.058-2.24-7.62,2.047-9.714,3-1.465,4.855,1.035,6.464.9,1.839-.155,3.023-2.766,4.4-3.179,2-.6,8.239.908,8.507-1.523a6.406,6.406,0,0,1-1.365-.38c-.377-.2-.513-1.139-.858-1.532l-28.43-.293c-1.814-.553-2.341-3.488-3.448-4.5-2.529-2.322-6.342-2.033-2.8-7.867,3.619-1.517,6.843-.5,6.526,3.867-.167,2.3-2.811,3.524,1.1,5.736l27.426.1Zm4.935-4.938c1.256,2.01,5.659-.734,3.753-3.4-1.752-2.454-5.349.849-3.753,3.4M141.4,122.21c-1.808.1-3.244.782-5.147.713-2.022-.073-5.479-1.9-6.262-1.856s-3.488,2.779-5.719,3.088-4.084-.973-5.883-.453c-1.433.414-2.9,2.782-5.874,3.2-2.573.361-4.635-.955-7.079-.2,1.918,2.2,5.211,7.162,8.1,7.813,2.5.563,15.815.558,18.495.109,4.949-.827,9.054-7.719,9.372-12.411m-4.839,26.975-3.417-11.472c-5.892.859-11.448-.444-17.333-.283l2.072,11.755Z" transform="translate(-15.429 -15.677)" fill="#fff"/>
    <path id="Path_552" data-name="Path 552" d="M205.814,29.973a4.2,4.2,0,0,1-.652,3.146c-1.639,2.773-9.5,11.359-12.132,14.154-.791.84-3.91,4.332-4.842,4.137-2.09-.436-.214-3.029.342-3.8,2.067-2.845,12.189-14.9,14.482-16.645.946-.721,1.435-1.273,2.8-1" transform="translate(-57.712 -9.217)" fill="#fff"/>
    <path id="Path_553" data-name="Path 553" d="M245.465,111.767H217.1l.306-2.115L243.735,109c1.717.308,1.918,1.105,1.729,2.767" transform="translate(-66.922 -33.599)" fill="#fff"/>
    <path id="Path_554" data-name="Path 554" d="M.071,111.767c-.279-.8.306-2.767,1.038-2.767H27.4l1.034,1.048L27.4,111.767Z" transform="translate(0 -33.599)" fill="#fff"/>
    <path id="Path_555" data-name="Path 555" d="M43.047,30.005l3.157.641c4.021,5.783,9.373,10.527,13.8,15.948.569.7,3.852,4.332,1.364,4.848-1.138.236-12.9-13.185-14.527-15.2-.757-.942-4.711-5.351-3.791-6.233" transform="translate(-13.227 -9.249)" fill="#fff"/>
    <path id="Path_556" data-name="Path 556" d="M127.1,27.67V0l2.115.306c.666.564.6,1.31.688,2.079.47,4.059.629,19.853-.035,23.555-.308,1.717-1.105,1.918-2.767,1.729" transform="translate(-39.18)" fill="#fff"/>
    <path id="Path_557" data-name="Path 557" d="M211.154,138.995c.671-.136,11.352,4.7,12.58,5.394,2.858,1.612,1.362,3.345-1.368,2.786-.735-.151-10.542-4.365-11.154-4.792-1.528-1.066-1.424-3.111-.059-3.388" transform="translate(-64.763 -42.844)" fill="#fff"/>
    <path id="Path_558" data-name="Path 558" d="M39.742,139.132c.91-.085,1.065.369,1.606.95l-.7,2.053c-3.681.641-8.974,4.586-12.247,5.077-2.493.374-3.047-1.22-.672-2.778,1-.656,11.36-5.24,12.014-5.3" transform="translate(-8.079 -42.884)" fill="#fff"/>
    <path id="Path_559" data-name="Path 559" d="M221.389,72.147c1.952-.38,4.151.79,2.236,2.272-.5.387-10.822,4.941-11.548,5.09-2.663.545-4.316-1.065-1.258-2.678,1.881-.992,8.942-4.366,10.57-4.684" transform="translate(-64.477 -22.217)" fill="#fff"/>
    <path id="Path_560" data-name="Path 560" d="M27.093,73.882c-.219-1.1.957-2.645,2.1-2.463.616.1,10.674,4.85,11.3,5.327,1.857,1.422,1.509,3.6-.71,2.8-4.351-1.568-8.291-4.218-12.689-5.667" transform="translate(-8.343 -22.011)" fill="#fff"/>
    <path id="Path_561" data-name="Path 561" d="M158.088,38.085c-.426-.5,3.989-11.163,4.662-12.27,1.164-1.911,3.143-.835,2.641,1.224-.376,1.543-4.321,11.029-5.209,11.433Z" transform="translate(-48.722 -7.651)" fill="#fff"/>
    <path id="Path_562" data-name="Path 562" d="M93.449,37.991a109.715,109.715,0,0,1-4.182-10.728c-.273-2.492,1.385-3.114,2.786-.66a78.022,78.022,0,0,1,3.872,9.99c.252,2.254-1.312,2.681-2.476,1.4" transform="translate(-27.507 -7.721)" fill="#fff"/>
    <path id="Path_563" data-name="Path 563" d="M105.09,101.11l-.306,2.115c-.726,1-11.985.989-13.516.294-2.392-1.086-6.039-7.669-8.315-8.28-1.1-.294-1.994,1.159-3.647.926-4.482-.634-5.035-8.676,1.232-8.257,3.445.23,2.791,3.043,4.483,5.256.735.961,7.4,7.947,7.963,7.947Z" transform="translate(-23.392 -27.092)" fill="#fff"/>
    <path id="Path_564" data-name="Path 564" d="M151.833,101.144c.541-.154,7.217-6.986,7.963-7.947,1.435-1.847.95-4.97,4.539-5.183,6.994-.415,4.86,11.7-3.174,7.219l-8.3,8.32c-1.482.672-15.582,1.755-13.823-2.409Z" transform="translate(-42.811 -27.127)" fill="#fff"/>
    <path id="Path_565" data-name="Path 565" d="M103.616,90.61h9l-.443,2.127L101.5,92.38c-1.117-.789-.218-3.7-1.3-5.618A69.636,69.636,0,0,0,93.91,80.6c-2.125-1.624-4.759-.6-4.838-4.868-.1-5.432,8.062-5.136,8.026,0-.008,1.038-1.119,2.248-.742,3.133,1.386,3.258,9.5,5.89,7.261,11.738" transform="translate(-27.456 -22.123)" fill="#fff"/>
    <path id="Path_566" data-name="Path 566" d="M146.169,92.643H135.1l0-2.072h8.307c-2.239-5.614,6.632-8.226,7.509-11.575.306-1.168-.48-2.261-.371-3.21.734-6.428,10.007-4.991,7.784,1.673-.859,2.577-3.532,2.094-5.595,3.415-3.358,2.151-7.982,7.5-6.563,11.769" transform="translate(-41.644 -22.085)" fill="#fff"/>
    <path id="Path_567" data-name="Path 567" d="M139.156,84.32,135,84.313c-.944-2.719,1.4-2.613,1.786-4.068.5-1.87-.08-3.994.645-5.607.4-.881,2.22-1.684,2.353-2.521.171-1.075-2.18-1.708-.8-4.911,1.864-4.323,8.435-2.245,7.8,2.195-.443,3.106-5.828,3.618-7.108,6.794-1.053,2.611-.338,5.443-.521,8.125" transform="translate(-41.545 -19.983)" fill="#fff"/>
    <path id="Path_568" data-name="Path 568" d="M115.913,81.426c.293.5,2.546.43,1.916,2.549-.443,1.493-3.6.928-4.041.246-.707-1.1.509-5.874-.462-8.18-1.134-2.694-6.466-3.776-7.126-6.047-1.476-5.073,6.376-7.348,7.9-2.279.682,2.265-1.22,3.256-1.009,4.408.178.969,2.148,1.729,2.529,3.006.551,1.844-.387,5.124.293,6.3" transform="translate(-32.68 -19.995)" fill="#fff"/>
  </g>
</svg>
