<svg id="Group_3296" data-name="Group 3296" xmlns="http://www.w3.org/2000/svg" xmlns:xlink="http://www.w3.org/1999/xlink" width="134.809" height="117.257" viewBox="0 0 134.809 117.257">
  <defs>
    <clipPath id="clip-path">
      <rect id="Rectangle_2288" data-name="Rectangle 2288" width="134.809" height="117.257" fill="#fff"/>
    </clipPath>
  </defs>
  <g id="Group_3295" data-name="Group 3295" clip-path="url(#clip-path)">
    <path id="Path_587" data-name="Path 587" d="M148.7,8V36.525c-8.473-2.286-15.918,4.8-14.432,13.443.325,1.89,1.648,3.286,1.828,5.132H81.039c5.44-6.7,18.257-6.338,12.235-17.971,3.487-6.1,9.893-12.81,12.863-18.955a4.245,4.245,0,0,0,.77-2.873c-1.385-.3-1.5.718-2.133,1.509-4.576,5.738-8.268,13.068-13.129,18.756-4.523-.959-7.45-.1-11.261,2.284L79.712,8Z" transform="translate(-26.834 -2.693)" fill="#fff"/>
    <path id="Path_588" data-name="Path 588" d="M11.086,62.463l-1.648-.992a2.142,2.142,0,0,0-1,1.659c-1.061,5.864,3.048,20.431-1.281,23.924C4.467,89.223.845,86.866.439,83.724-.186,78.9-.133,63.368.531,58.542c.581-4.226,4.056-8.325,7.9-10.011,5.152-2.26,24.619-2.633,29.645-.454,5.073,2.2,6.039,7.088,9.818,10.114,4.612-2.407,8.675-7.612,14.268-7.334.777.676-2.654,3.5-2.634,4.313.058,2.4,4.624-1.532,4.959-2.312,1.568,1.237,1.293,3.477.373,5.007-1.231,2.049-13.628,7.758-16.137,10.389-5.883,1.933-6.548-1.751-9.582-5.279-.41-.477.033-1.244-1.521-.843v64.015c0,3.005-5.689,4.832-8.571,3.271a16.715,16.715,0,0,1-2.706-2.608V93.31h-3.98v32.837c0,1.67-3.786,4.216-5.639,4.216s-5.639-2.547-5.639-4.216Z" transform="translate(0 -15.695)" fill="#fff"/>
    <path id="Path_589" data-name="Path 589" d="M182.77,155.837c-.619,3.68-7.96,3.261-7.96,0v-23.55l-2.575.083c-1.619,1.319-.23,19.287-.71,22.836-.67,4.957-6.852,4.3-7.851-.174-1.422-6.369.765-16.6-.146-23.41,2.726.37,16.06-3.684,16.918-5.331.713-1.369-.321-2.816,2.324-3.29Z" transform="translate(-54.931 -41.406)" fill="#fff"/>
    <path id="Path_590" data-name="Path 590" d="M29.244,6.181C42.3,4.872,46.959,23.79,35.151,28.724c-17.078,7.138-23.3-20.8-5.907-22.543" transform="translate(-6.355 -2.059)" fill="#fff"/>
    <path id="Path_591" data-name="Path 591" d="M180.848,100.327l.1-3.872L178.311,99.1l-.674-6.633c-.551-.558-12.981,2.628-14.266,4.527-.988-2.157-7.729-2.785-7.545-4.739a22.73,22.73,0,0,1,2.876-5.127c4.63-4.937,22.352-5.175,26.081,1.846,1.824,3.434,3.881,11.734,1.178,14.8-1.918,2.175-14.509,9.149-14.985,3.584.671-4.159,6.605-5.207,9.873-7.034" transform="translate(-52.454 -28.126)" fill="#fff"/>
    <path id="Path_592" data-name="Path 592" d="M151.653,0V37.149c-.488-.013-1.99-1.529-1.99-1.658V2.653H74.7V37.812l-1.99.663V0Z" transform="translate(-24.477)" fill="#fff"/>
    <path id="Path_593" data-name="Path 593" d="M171.565,55.037c14.278-3.264,15.2,17.67,1.851,16.471-9.684-.869-9.591-14.7-1.851-16.471" transform="translate(-55.861 -18.411)" fill="#fff"/>
    <path id="Path_594" data-name="Path 594" d="M159.989,120.891l-11.277-3.317V99c3.834,1.4,8,2.4,11.277,4.975Z" transform="translate(-50.061 -33.326)" fill="#fff"/>
    <path id="Path_595" data-name="Path 595" d="M73.646,85.442c-1.187-.336-2.005-2.906.655-2.974,18.594-.478,37.437,1.016,56.063.327a10.176,10.176,0,0,1-2.322,2.647Z" transform="translate(-24.416 -27.729)" fill="#fff"/>
    <path id="Path_596" data-name="Path 596" d="M168.712,104.631c.331-1.014,8.871-3.593,10.279-3.664s.847.018,1,.988c1.056,6.66-3.907,4.975-6.006,8.609a4.533,4.533,0,0,0,1.658,6.373c1.769,1,3.615.01,4.34,1.286l-11.273,3.325Z" transform="translate(-56.794 -33.982)" fill="#fff"/>
  </g>
</svg>
