<svg id="Group_3294" data-name="Group 3294" xmlns="http://www.w3.org/2000/svg" xmlns:xlink="http://www.w3.org/1999/xlink" width="177.98" height="111.602" viewBox="0 0 177.98 111.602">
  <defs>
    <clipPath id="clip-path">
      <rect id="Rectangle_2287" data-name="Rectangle 2287" width="177.98" height="111.602" fill="#fff"/>
    </clipPath>
  </defs>
  <g id="Group_3293" data-name="Group 3293" clip-path="url(#clip-path)">
    <path id="Path_581" data-name="Path 581" d="M178.011,46.808,91.932,99.268,64.865,54.1l-2.409,6.06C51.983,71.887,31.621,72.5,17.326,68.916c-8.238-2.067-19.6-7.6-16.7-18.048C1.848,52.179,2.436,53.7,3.863,54.9c13.592,11.449,48.914,12.036,59.8-4.034l.8,2.416L149.339,0ZM87.659,83.031c5.571-.653,9.844-.764,14.371,3.068l1.644-.013L162.3,50.08c-2.978-6.387.531-9.928,2.669-15.583L153.777,16.458c-6.684,1.814-9.961-.962-15.563-3.458L80.366,48.585c1.475,6.678.194,10.389-4.065,15.474Z" transform="translate(-0.031)" fill="#fff"/>
    <path id="Path_582" data-name="Path 582" d="M22.684,28.126c12.49-1.5,44.268.6,41.339,19.524C61.706,62.617,31.53,63.74,20.4,61.48-9.432,55.427-4.1,31.345,22.684,28.126m12.189,3.939c-5.213-1.116-3.215.851-4.087,2.08-1,1.41-6.782.463-6.906,5.619-.167,7.013,13.158,4.014,11.5,9.961-3.4-.1-6.851.728-9.7-1.527L23.67,52.138c3.257.742,7.308.222,7.731,4.1l3.589-.057L34.5,53.734c1.111-1.482,6.494-.134,6.927-5.284.524-6.254-11.572-5.791-12.093-8.035-.8-3.443,8.709-1.611,10.479-1.213l.838-3.211c-2.828-.727-5.771-.29-5.775-3.927" transform="translate(-0.041 -5.322)" fill="#fff"/>
    <path id="Path_583" data-name="Path 583" d="M61.335,99.7c.886-.8,1.226-2.661,2.7-2.946,2.4,13.315-14.348,18.329-24.745,19.291-13.335,1.233-41.637-.955-39.083-20.1l5.7,6.007c14.5,9.117,42.4,9.554,55.426-2.256" transform="translate(-0.009 -18.408)" fill="#fff"/>
    <path id="Path_584" data-name="Path 584" d="M64.072,113.94c2.256,17.769-25.8,20.445-38.274,19.291-9.863-.913-28.578-6.24-25.161-19.287,14.741,16.251,48.454,15.754,63.435,0" transform="translate(-0.043 -21.86)" fill="#fff"/>
    <path id="Path_585" data-name="Path 585" d="M63.239,79.755c1.5.526.907,5.461.628,6.693C62.181,93.893,45.922,98.58,39.376,99.132c-10.9.92-37.083-.995-39.2-14.919-.131-.864-.583-5.125.816-5.266,4.072,8.574,17.521,12.114,26.379,12.82,11.235.9,29.673-1.364,35.869-12.012" transform="translate(0 -15.147)" fill="#fff"/>
    <path id="Path_586" data-name="Path 586" d="M138.878,41.049c16.523-3.692,29.426,17.844,18.045,29.36-9.881,10-25.882-1.421-26.733-13.738-.407-5.9,2.259-14.186,8.688-15.622m8.317,9.52-.385-2.436c-1.156-1.679-2.84.066-4.117-.07-1.5-.16-2.258-1.9-4.4-.715,1.511,3.468-1.894,5.093-.642,9.134.895,2.888,6.638,3.448,9.158,3.4,1.144-.022,3.614-3.389,3.607,2.007l-3.228-.8.078,2.005L143.122,64.8l.86,2.751c3.226-1.169,4.785-1.046,7.635.811,1.916-1.085.356-2.522.832-4,.752-2.34,3.743-4.058.448-7.774-2.6-2.927-9.316.642-12.164-2.386-.4-1.889,4.918-3.772,6.462-3.633" transform="translate(-24.97 -7.795)" fill="#fff"/>
  </g>
</svg>
