<svg id="Group_3281" data-name="Group 3281" xmlns="http://www.w3.org/2000/svg" xmlns:xlink="http://www.w3.org/1999/xlink" width="127.62" height="129" viewBox="0 0 127.62 129">
  <defs>
    <clipPath id="clip-path">
      <rect id="Rectangle_2277" data-name="Rectangle 2277" width="127.62" height="129" fill="#fff"/>
    </clipPath>
  </defs>
  <g id="Group_3280" data-name="Group 3280" clip-path="url(#clip-path)">
    <path id="Path_521" data-name="Path 521" d="M85.388,121.99H69.262c-1.92-6.468-3.558-13.191-3.225-20H85.065c.92.566.89,1.286,1,2.225.679,5.777-.891,11.991-.678,17.771" transform="translate(-23.427 -36.207)" fill="#fff"/>
    <path id="Path_522" data-name="Path 522" d="M121.057,102c.724.729-1.914,18.053-4.193,20h-15.8V102Z" transform="translate(-35.875 -36.207)" fill="#fff"/>
    <path id="Path_523" data-name="Path 523" d="M117.831,67l3.228,19.352c-4.831.133-9.707-.174-14.543-.031-1.1.032-5.456,1.454-5.456-.293V67Z" transform="translate(-35.875 -23.782)" fill="#fff"/>
    <path id="Path_524" data-name="Path 524" d="M85.4,67l.645,19.35h-20c-.2-6.626,1.484-13.062,3.225-19.35Z" transform="translate(-23.441 -23.782)" fill="#fff"/>
    <path id="Path_525" data-name="Path 525" d="M152.7,102c-.626,6.957-1.957,14.239-6.128,20H132.061l3.225-20Z" transform="translate(-46.88 -36.207)" fill="#fff"/>
    <path id="Path_526" data-name="Path 526" d="M51.476,102c0,6.811,1.483,13.476,3.225,20H40.189a36.059,36.059,0,0,1-6.128-20Z" transform="translate(-12.091 -36.207)" fill="#fff"/>
    <path id="Path_527" data-name="Path 527" d="M146.574,67c4.071,5.609,5.537,12.544,6.128,19.347-4.2-.622-8.638.582-12.577.705-1.636.05-3.226-1.178-4.831-.054l-3.234-20Z" transform="translate(-46.88 -23.782)" fill="#fff"/>
    <path id="Path_528" data-name="Path 528" d="M54.653,67,51.422,86.34c-5.724-.514-11.935.862-17.319-.087C33,84.529,37.235,68.837,40.141,67Z" transform="translate(-12.043 -23.782)" fill="#fff"/>
    <path id="Path_529" data-name="Path 529" d="M114.132,168.751l-.1,6.359c-2.108-1.628-11.666-4.343-10.888-7.29l8.646-8.185c1.478-.27.872.653.951,1.6.17,2.03-.749,4.342,2.194,4.185,1.826-.1,8.97-2.975,10.957-3.938,8.808-4.267,18.51-13.245,23.5-21.655.928-1.564,4.167-9.282,4.6-9.588a1.6,1.6,0,0,1,2.32.348c1.244,1.965-4.627,11.4-6,13.382a62.727,62.727,0,0,1-36.177,24.777" transform="translate(-36.599 -46.11)" fill="#fff"/>
    <path id="Path_530" data-name="Path 530" d="M56.194,14.829a16.719,16.719,0,0,0-.635-4.854c-.248-.779.482-1.094-.954-.931-2.935.331-9.591,2.984-12.4,4.385A61.758,61.758,0,0,0,17.8,36.751c-1.193,2.1-2.725,7.2-3.866,8.419-.7.75-2.641.3-2.9-.026-.494-.638,4.224-9.992,5.054-11.392A60.649,60.649,0,0,1,54.268,6.142c1.643-1.214-.315-4.363-.009-6.141l11.6,6.124c-2.648,2.206-5.063,5.7-7.724,7.744-.647.5-.818,1.251-1.936.96" transform="translate(-3.905 0)" fill="#fff"/>
    <path id="Path_531" data-name="Path 531" d="M115.9,52.765H101.061V35.995c7.451,2.036,12.7,9.8,14.835,16.77" transform="translate(-35.875 -12.778)" fill="#fff"/>
    <path id="Path_532" data-name="Path 532" d="M114.284,137.616c.269-.032.875-.892,1.608-.642-1.837,6.884-7.208,15.466-14.831,16.768V137.616c4.214-.352,9.1.481,13.223,0" transform="translate(-35.875 -48.607)" fill="#fff"/>
    <path id="Path_533" data-name="Path 533" d="M73.061,52.765c3.223-7.06,6.869-14.341,14.829-16.77.112,4.19-.117,8.411-.025,12.606.035,1.638,1.3,3.126-.291,4.164Z" transform="translate(-25.935 -12.778)" fill="#fff"/>
    <path id="Path_534" data-name="Path 534" d="M46.061,53.3C51.514,45.508,61,38.047,70.568,37.49A37.606,37.606,0,0,0,60.251,53.3Z" transform="translate(-16.351 -13.308)" fill="#fff"/>
    <path id="Path_535" data-name="Path 535" d="M137.928,53.288H124.706c-3.326-5.446-5.66-11.516-10.64-15.806,2.681-.187,6.846,1.513,9.462,2.793a36.118,36.118,0,0,1,14.4,13.013" transform="translate(-40.492 -13.301)" fill="#fff"/>
    <path id="Path_536" data-name="Path 536" d="M87.9,136.995v16.77c-3.684-.819-7.03-3.58-9.36-6.442-.9-1.108-5.485-8.715-5.459-9.365.04-1.023,1.32-.685,1.917-.659,4.216.184,8.829,1.074,12.9-.3" transform="translate(-25.944 -48.631)" fill="#fff"/>
    <path id="Path_537" data-name="Path 537" d="M138.275,137c1.1,1.749-8.016,9.413-9.728,10.583-1.9,1.3-11.921,6.689-13.487,5.535,3.5-4.76,7.574-9.54,9.1-15.4Z" transform="translate(-40.845 -48.631)" fill="#fff"/>
    <path id="Path_538" data-name="Path 538" d="M60.433,137.978l3.5,7.142,6.319,8.833a44.088,44.088,0,0,1-23.209-15.166c-.269-1.459.637-.89,1.6-.959,2.025-.146,10.623-.682,11.793.151" transform="translate(-16.682 -48.819)" fill="#fff"/>
    <path id="Path_539" data-name="Path 539" d="M184.03,107.143c9.07-1.3,9.7,12.98.553,12.1-7.391-.714-7.438-11.109-.553-12.1" transform="translate(-63.525 -38.004)" fill="#fff"/>
    <path id="Path_540" data-name="Path 540" d="M5.041,75.122c7.142-1.18,10.125,10.345,2.928,12-9.115,2.1-10.842-10.7-2.928-12" transform="translate(0 -26.637)" fill="#fff"/>
    <path id="Path_541" data-name="Path 541" d="M160.438,29.078c9.245-2.087,10.455,10.772,2.923,12.008-7.142,1.171-10.374-10.325-2.923-12.008" transform="translate(-55.445 -10.241)" fill="#fff"/>
    <path id="Path_542" data-name="Path 542" d="M27.712,154.066c10.35-2.361,10.32,11.876,1.812,11.515-6.34-.27-7.671-10.178-1.812-11.515" transform="translate(-8.508 -54.597)" fill="#fff"/>
    <path id="Path_543" data-name="Path 543" d="M185.293,83.527l-3.131-1.061a57.373,57.373,0,0,0-4.3-22.151c-.7-1.707-5.336-9.628-4.825-10.327l2.894-.025a63.265,63.265,0,0,1,9.357,33.565" transform="translate(-61.413 -17.736)" fill="#fff"/>
    <path id="Path_544" data-name="Path 544" d="M135.695,19.118c.378.406.8,1.211.542,1.758L134.372,22.1a54.224,54.224,0,0,0-33.316-11.555V7.969c8.626-.453,17.872,1.907,25.607,5.676,1.709.833,8.014,4.378,9.032,5.472" transform="translate(-35.873 -2.809)" fill="#fff"/>
    <path id="Path_545" data-name="Path 545" d="M9.134,99.789c.461.72-.068,4.556.106,6.013a66.471,66.471,0,0,0,6.09,20.353c1.04,2.205,4.594,4.774,1.952,7.065-3.091.638-8.735-16.078-9.426-18.942-.76-3.144-2.385-10.753-1.849-13.626a1.752,1.752,0,0,1,3.126-.864" transform="translate(-2.095 -35.184)" fill="#fff"/>
    <path id="Path_546" data-name="Path 546" d="M77.255,181.764l-.363,2.571a56.332,56.332,0,0,1-20.9-4.213c-2.053-.824-13.225-6.386-12.871-8.292l1.929-1.44c9.183,7.215,20.6,10.709,32.206,11.374" transform="translate(-15.304 -60.486)" fill="#fff"/>
  </g>
</svg>
