<svg id="Group_3290" data-name="Group 3290" xmlns="http://www.w3.org/2000/svg" xmlns:xlink="http://www.w3.org/1999/xlink" width="110.001" height="121.984" viewBox="0 0 110.001 121.984">
  <defs>
    <clipPath id="clip-path">
      <rect id="Rectangle_2285" data-name="Rectangle 2285" width="110.001" height="121.984" fill="#fff"/>
    </clipPath>
  </defs>
  <g id="Group_3289" data-name="Group 3289" clip-path="url(#clip-path)">
    <path id="Path_572" data-name="Path 572" d="M18.688,12.733,19.417,1.06C20.359-.974,24.346.545,26.2.552,47.657.633,69.125.414,90.571.508l.715,12.224h18.688c.628,22.563-9.815,41.411-30.937,49.925-2.152.868-4.619.806-6.7,1.921-2.227,1.19-4.622,4.561-7.621,5.318-4.114,3.945,1.32,19.808,5.519,21.033,2.322.678,7.242-.964,8.48,1.583l.386,22.257c4.571-.269,6.61,2.867,6.44,7.213h-61.1c-.17-4.346,1.869-7.482,6.44-7.213l.131-22.513c.891-2.723,7.121.523,10.284-2.654,3.753-3.769,6.667-13.891,4.557-18.858-.61-1.435-7.319-4.4-8.675-6.418C19.727,63.13,0,39.883,0,23.155V12.733ZM86.973,4.107H23c-.65,18.586,2.213,45.646,17.733,58.1,4.32,3.466,8.28,2.785,9.259,8.714A26.257,26.257,0,0,1,45.283,91.08H64.691c-4.226-5.917-6.478-14.539-4.876-21.768.771-3.479,3.378-3.01,5.553-4.51,19.5-13.443,21.6-38.79,21.605-60.695M18.329,16.327H4.672c-.673.514-.912.737-.938,1.619C3.672,20.092,4.8,25.5,5.384,27.834c3.2,12.845,12.442,25.528,25.157,30.189-.927-2.873-2.857-5.351-4.072-8.148A100.643,100.643,0,0,1,19.5,23.782c-.257-1.806.559-6.923-1.17-7.455m87.332,0H91.645l-.968,1.187c-.983,14-3.554,28.825-12.326,40.146,1.612.865,4.369-1.028,5.963-1.944,13.4-7.7,21.446-24.139,21.347-39.39M69.722,99.706H40.252v12.219h29.47Z" transform="translate(0 0)" fill="#fff"/>
    <path id="Path_573" data-name="Path 573" d="M69.118,18.545c1,.985,2.926,10.184,5.083,11.818,3.112,2.357,9.9.106,13.615,1.846l-9.954,9.137L80.622,55.2,68.642,48.146,56.19,55.194l3.433-13.2L49.008,32.209l14.2-1.616c.726-.635,3.509-9.228,4.42-11.029.283-.559.252-2.246,1.494-1.019" transform="translate(-13.782 -5.092)" fill="#fff"/>
  </g>
</svg>
