<svg id="Group_3283" data-name="Group 3283" xmlns="http://www.w3.org/2000/svg" xmlns:xlink="http://www.w3.org/1999/xlink" width="110.228" height="123.955" viewBox="0 0 110.228 123.955">
  <defs>
    <clipPath id="clip-path">
      <rect id="Rectangle_2278" data-name="Rectangle 2278" width="110.228" height="123.955" fill="none"/>
    </clipPath>
  </defs>
  <g id="Group_3282" data-name="Group 3282" clip-path="url(#clip-path)">
    <path id="Path_547" data-name="Path 547" d="M27,148.164l.115-24.563c5.484-3.514,13.414-6.637,20.183-6.107,7.11.557,13.656,5.63,20.286,6.9,5.327,1.016,15.514-.071,19.669,1.79,3.994,1.79,4.772,7.423.769,9.685l-31.69.857c-.246,1.811,1.825,2.592,3.259,2.814,4.966.77,21.226.636,26.422.043,6.848-.782,7.712-5.4,7.871-11.442,5.207-2.591,10.63-12.96,16.456-12.949,5.764.011,1.771,5.156,7.454,5.13.515,2.036-.729,3.37-1.8,4.889-1.926,2.722-15.007,17.972-17.094,19.387-3.8,2.574-23.175,11.505-27.155,11.456-10.21-.126-25.907-7.887-34.369-7.887Z" transform="translate(-7.687 -32.793)" fill="#fff"/>
    <path id="Path_548" data-name="Path 548" d="M79.065,56.574H64.759c-.882-8.462,1.952-14.743,7.175-21.08,2.645-3.21,6.775-5.621,8.2-9.681,5.779-16.52-18.763-18.3-17.516-1.428H48.307C45.845-7.6,99.15-8.287,96.222,23.306c-1.366,14.74-19.059,18-17.157,33.268" transform="translate(-13.729 0)" fill="#fff"/>
    <path id="Path_549" data-name="Path 549" d="M15.737,117.288c-.232.7.715,1.552.715,1.788v38.269H0V117.288ZM7.662,147.431c-4.871,1.358.012,9.748,3.109,4.586,1.615-2.692-.235-5.386-3.109-4.586" transform="translate(0 -33.39)" fill="#fff"/>
    <path id="Path_550" data-name="Path 550" d="M75.421,90.219c13.958-2.835,16.046,18.506,1.964,17.769-10.779-.564-11.455-15.841-1.964-17.769" transform="translate(-19.578 -25.61)" fill="#fff"/>
  </g>
</svg>
