<svg id="Group_3316" data-name="Group 3316" xmlns="http://www.w3.org/2000/svg" xmlns:xlink="http://www.w3.org/1999/xlink" width="184.933" height="168.225" viewBox="0 0 184.933 168.225">
  <defs>
    <clipPath id="clip-path">
      <rect id="Rectangle_2296" data-name="Rectangle 2296" width="184.933" height="168.225" fill="#fff"/>
    </clipPath>
  </defs>
  <g id="Group_3315" data-name="Group 3315" clip-path="url(#clip-path)">
    <path id="Path_631" data-name="Path 631" d="M81.48,1.419c1.284,6.173,12.709,18.462,11.081,24.024-1.126,3.848-14.646,14.132-18.8,15.25-4.722,1.271-15.816-2.808-18.146.085C54.083,42.684,49.8,57.9,49.69,60.716c-.414,10.286,5.134,22.363.048,33.448C62.4,76.386,89.428,69.242,106.361,85.1c9.386-7.732,20.611-11.092,32.581-7.648,1.24.357,5.145,1.265,4.777,3.2-1.455,3.186-10.33-.456-13.485-.55-7.017-.209-13.243,2.264-18.861,6.21-1.3.91-1.839,2.841-2.656,3.339-3.985,2.431-4-1.472-6.63-3.338-17.73-12.59-40.882-4.15-50.872,13.846l-3.474-2.989c.347,2.849-8.024,13.892-11.007,10.992.818-4.972,5.561-7.643,7.869-12.62,6.67-14.382.548-22.038,1.112-34.83.3-6.735,3.721-16.094,6.927-22.061-2.886-2.75-6.976-2.216-5.908-7.479.9-1.011,8.845,4.651,10.663,4.786,1.8.132,3.086-1.793,4.841-1.766,1.711.025,3.457,2.6,6.072,2.96,5.706.78,8.159-4.182,13.419-5,.7-.948-5.413-11.15-6.183-13.329-.394-1.117-1.1-2.3.7-2.652,3.081-.606,5.668,8.7,7.454,10.547,12.425.038-4.34-16.335-5.122-22.39-3.827-2.4-29.818,9.979-34.18,13.005C38.321,21.546,33.238,36.915,29.25,44.186c-8.141,14.842-20.672,30.337-22.4,47.6-.616,6.158.522,12.895-.113,18.887C6.054,117.119.979,121.5,7.789,126.607c6.751,5.067,14.859,4.375,22.383,6.614,20.616,6.135,32.555,12.976,55.315,6.2,3.915-1.165,9.947-4.855,12.775-5.258,1.591-.226,2.427,2.062,2.412,2.514-.108,3.172-22.693,9.135-26.461,9.47-18.8,1.674-30.584-4.483-47.45-9.518C20,134.612,14,135.17,7.027,131.371-4,125.361,1.088,120.806,1.712,111.648c.677-9.928,0-18.45,2.51-28.49C8.07,67.8,19.812,53.212,27.25,39.186c2.882-5.434,8.258-20.5,11.746-23.362C43.077,12.474,53.583,7.85,58.761,5.7,63.785,3.607,77.068-2.827,81.48,1.419" fill="#fff"/>
    <path id="Path_632" data-name="Path 632" d="M184.593,134.025c-3.573,1.784-8.208.137-10.74,3.756-4.949,7.071,3.723,9.942,2.769,13.678l-8.921,9.255-2,.076c-9.549-8.613-13.73-4.172-15.916,6.932l-13.443.5c-.9-.243-1.29-3.666-1.5-4.681-1.322-6.418,1.033-5.088-7.182-7.954l-8.45,5.291c-.626-.052-8.714-8.085-9.017-8.753-1.942-4.272,4.745-6.359,4.121-10.991-1.171-8.686-9.393-4.2-11.665-7.639-.911-9-3.221-15.036,8.364-15.548,10.184-9.646-9.324-10.167,4.239-20.754,8.416-6.569,8.633,2.793,13.472,1.576,8.617-2.166,4.5-5.978,7.964-12.145,3.4-.461,12.035-1.705,13.968,1.106,2.142,3.115-.629,6.3,3.7,9.289,6.512,4.493,6.912-1.9,12.725-3.753.63.109,8.868,8.255,9.175,8.931,1.9,4.168-4.462,6.546-4.041,10.026.9,7.441,5.487,5.5,9.756,7.19,4.709,1.865,2.3,10.3,2.616,14.609m-36.875-43.85-8.047.431c-1.636,1.144-1.147,6.778-2.45,8.55a67.772,67.772,0,0,1-8.246,3.858c-3.534.681-5.14-2.255-7.991-3.708-11.927,3.828-2.643,8.251-2.247,12.418.266,2.805-3.057,6.147-3.236,9.21l-9.812,2.889.5,6.382c2.124,2.164,6.5,1.243,8.529,2.467,1.251.754,4.194,9.365,4.026,10.967-.273,2.608-4.989,4.645-3.568,7.5l5.036,4.788c2.518-.543,4.8-4.337,7.168-4.556a58.24,58.24,0,0,1,8.3,3.34c3.3,2.339,2.366,9.137,3.624,9.512l7.489-.489c1.57-1.126.848-6.8,2.164-8.33a98.343,98.343,0,0,1,9.512-4.106c2.843-.4,5.262,3.675,7.944,4.735l6.073-5.353-4.692-8.011,3.414-9.52,9.576-2.562-.162-7.321c-2.342-.871-6.622-.562-8.488-2.009a64.716,64.716,0,0,1-4.246-8.826c-.561-3.615,5.069-7.772,4.4-9.266l-5.21-4.844-7.827,4.828-9.531-3.481Z" fill="#fff"/>
    <path id="Path_633" data-name="Path 633" d="M96.724,117.17c-1.324,9.358-17.964,10.739-25.483,9.983-3.35-.337-16.791-4.91-16.486-8.493.351-4.111,10.27,2.807,12.535,3.443a35.816,35.816,0,0,0,12.947,1.066c6.5-.7,10.5-4.795,16.487-6" fill="#fff"/>
    <path id="Path_634" data-name="Path 634" d="M66.241,23.171c1.76-.472,2.423.367,3.365,1.616.979,1.3,5.572,8.738,2.608,9.372-1.467.313-10.67-9.729-5.973-10.988" fill="#fff"/>
    <path id="Path_635" data-name="Path 635" d="M138.465,107.4c29.339-4.986,33.508,35.448,9.527,39.522-29.441,5-32.967-35.538-9.527-39.522m-.008,3.991c-18.089,3.728-13.981,36.833,9.343,31.337,19.29-4.546,14.269-36.2-9.343-31.337" fill="#fff"/>
  </g>
</svg>
