<svg id="Group_3314" data-name="Group 3314" xmlns="http://www.w3.org/2000/svg" xmlns:xlink="http://www.w3.org/1999/xlink" width="179.823" height="152.975" viewBox="0 0 179.823 152.975">
  <defs>
    <clipPath id="clip-path">
      <rect id="Rectangle_2295" data-name="Rectangle 2295" width="179.823" height="152.975" fill="#fff"/>
    </clipPath>
  </defs>
  <g id="Group_3313" data-name="Group 3313" clip-path="url(#clip-path)">
    <path id="Path_627" data-name="Path 627" d="M170.77,105.971c-1.783,1.591-12.9-2.9-15.371-4.119-3.263-1.607-12.9-9.371-14.325-9.7-2.186-.512-13.776,2.786-17.77,2.882-36.541.877-74.9-32.6-52.723-69.746C100.305-24.5,200.641,5.023,175.953,63.655,173.809,68.748,164.181,79.547,163.8,81.5c-1.639,8.373,4.385,16.978,6.971,24.473m-7.005-5A66.732,66.732,0,0,1,158.916,79.7C204.264,34.834,146.655-11.357,97.1,8.8,44.928,30.01,70.3,92.578,123.316,91.017c5.033-.148,14.986-3.627,18.721-2.873,4.223.852,15.012,12.793,21.728,12.832" fill="#fff"/>
    <path id="Path_628" data-name="Path 628" d="M16.785,147.976c1.625,2.08,20.051-12.451,21.722-12.8,2.076-.432,11.256,2.554,14.782,2.783,24.6,1.594,53.206-12.933,57.593-38.871l3.888-.106c-4.739,34.069-45.277,49.112-75.535,40.4C30.7,145.814,20.979,153.173,9.78,152.971c1.376-5.365,4.611-9.139,5.545-14.944,2.2-13.655-2.483-11.411-8.372-20.729-18.9-29.9,3.531-59.857,33.815-67.828,2.463-.648,20.045-4.949,19-.009-.3,1.415-15.645,3.411-18.756,4.254C13.047,61.3-7.66,89.818,11.545,116.706c6.2,8.684,9.759,6,8.122,19.662-.477,3.973-2.664,7.6-2.882,11.608" fill="#fff"/>
    <path id="Path_629" data-name="Path 629" d="M35.274,118.976c-3.612-1.12.227-11.016,1.663-13.337,2.949-4.767,7.548-6.117,11.819-9.163C33.335,84.969,50,55.823,64.7,70.549c7.428,7.442,3.851,19.679-.925,27.412,9.4,2.085,15,11.816,13,21.015ZM53.5,71.173c-10.846,2.36-7.554,25.618,3.406,24.307C68.06,94.147,68.054,68.008,53.5,71.173m19.273,43.8c.829-19.251-31.8-19.691-34.606-2.071l1.106,2.071Z" fill="#fff"/>
    <path id="Path_630" data-name="Path 630" d="M99.774,70.976c-1.023-9.386,3.706-19.931,14-21.009.879-.955-3.589-6.619-4.223-8.27-3.63-9.446.045-22.892,11.732-22.808,14.64.106,17.239,22.378,6.493,29.582,4.276,3.03,8.89,4.411,11.833,9.168,1.344,2.172,5.344,13.337,1.663,13.337Zm18.71-47.787c-9.641,2.254-7.114,22.261.826,23.772,14.058,2.677,15.144-27.506-.826-23.772m-14.71,43.787h33.5l1.355-2.3c-4.873-17.714-33.41-16.59-34.855,2.3" fill="#fff"/>
  </g>
</svg>
