<svg id="Group_3312" data-name="Group 3312" xmlns="http://www.w3.org/2000/svg" xmlns:xlink="http://www.w3.org/1999/xlink" width="169.846" height="154.36" viewBox="0 0 169.846 154.36">
  <defs>
    <clipPath id="clip-path">
      <rect id="Rectangle_2294" data-name="Rectangle 2294" width="169.846" height="154.36" fill="#fff"/>
    </clipPath>
  </defs>
  <g id="Group_3311" data-name="Group 3311" clip-path="url(#clip-path)">
    <path id="Path_625" data-name="Path 625" d="M42.808,154.36c-3.292-6.085,1.208-13.657-2.032-20.968-2.751-6.208-19.634-.075-26.009-6.992-5.764-6.254-.115-11.029-.6-13.4-.23-1.124-2.3-1.936-2.719-3.377-.1-.345-1.072-6.274-1.129-6.828-.262-2.548,1.36-4.849.964-7.407-24.121-2.087-2.405-20.751-.2-31.754,1.009-5.034.468-12.025,1.482-17.518C18.23,15.456,47.171,3.91,75.555,7.614c2.3.3,6.846,2.477,8.254,2.353.754-.067,10.132-6.327,13.22-7.386,13.726-4.707,32.384-2.929,44.616,4.942,2.972,1.911,11.75,8.115,5.177,9.833C131.974,1.3,107.936.413,89.312,10.375c-.571,2.289.432,1.634,1.256,2.275,3.023,2.35,6.982,4.023,10.21,6.74,19.349,16.28,21.964,41.816,12.388,64.328-4.632,10.888-16.858,26.146-16.858,38.142v32.5Zm2.5-4h47v-29.5c0-11.89,12.56-28.111,17.173-38.827,7.211-16.754,7.41-37.274-4.2-52.149-3.225-4.133-15.652-15.3-20.676-15.334-1.942-.015-6.56,6.849-7.719,8.891C71.54,32.87,70.5,43.074,72.581,53.587,75.854,70.1,90.632,81.167,89.313,98.853c-5.15,2.48-4.154-6.829-5.3-10.7-6.742-22.8-23.958-30.39-13.744-60.332L79.3,12.365C53.321,5.607,22.238,18,16.546,46.1c-1.163,5.745-.547,12.767-1.68,18.32C13.778,69.749,4.255,84.853,4.3,87.91c.046,3.594,6.746,2.819,8.99,3.973,3.71,1.907,1.226,7.693,2,10.779.287,1.147,2.943,1.343,3.007,2.185.026.346-1.747,1.928-1.834,3.168s1.626,2.427,1.862,3.918c.485,3.069-1.9,5.536-2.006,8.04-.364,8.413,17.27,5.483,22.282,6.6,8.073,1.8,8.46,17.349,6.714,23.786" fill="#fff"/>
    <path id="Path_626" data-name="Path 626" d="M128.308,126.36c-.079-6.062-1.038-19.055,6.714-20.786,4.312-.964,20.7,1.751,20-5.541-.188-1.972-1.855-3.929-1.792-6.214.031-1.121,1.92-10.383,3.114-10.024l-.91-7.807c.8-2.269,7.509-2.607,9.88-2.632,1.582-1.567-7.758-18.421-8.724-21.779-2.037-7.078-.913-14.94-2.278-22.212,7.666.349,4.188,13.084,5.437,19.053,1.223,5.847,11.57,21.514,9.918,25.672-1.381,3.476-9.966,2.747-10.364,4.792.134,1.82,1.995,3.166,1.959,4.992-.058,2.9-3.535,9.077-3.742,10.1-.594,2.944,3.466,6.345-.64,11.468-5.34,6.661-24.573-.135-24.573,9.419v15.5h-31l-.979-2.5,1.479-1.5Z" fill="#fff"/>
  </g>
</svg>
